<svg width="48" height="48" viewBox="0 0 48 48" fill="none" xmlns="http://www.w3.org/2000/svg">
<path d="M42 23.0001C42.0069 25.6398 41.3901 28.2438 40.2 30.6001C38.7889 33.4235 36.6195 35.7984 33.9349 37.4586C31.2503 39.1188 28.1565 39.9988 25 40.0001C22.3603 40.0069 19.7562 39.3902 17.4 38.2001L6 42.0001L9.8 30.6001C8.60986 28.2438 7.99312 25.6398 8 23.0001C8.00122 19.8436 8.88122 16.7498 10.5414 14.0652C12.2017 11.3806 14.5765 9.21119 17.4 7.80006C19.7562 6.60992 22.3603 5.99317 25 6.00006H26C30.1687 6.23004 34.1061 7.98958 37.0583 10.9418C40.0105 13.894 41.77 17.8314 42 22.0001V23.0001Z" stroke="black" stroke-width="2" stroke-linecap="round" stroke-linejoin="round"/>
<path d="M32.0167 17.8167C31.5987 17.3972 31.1019 17.0643 30.5549 16.8372C30.0079 16.6101 29.4215 16.4932 28.8292 16.4932C28.237 16.4932 27.6505 16.6101 27.1036 16.8372C26.5566 17.0643 26.0598 17.3972 25.6417 17.8167L25.0001 18.4667L24.3584 17.8167C23.9403 17.3972 23.4436 17.0643 22.8966 16.8372C22.3496 16.6101 21.7632 16.4932 21.1709 16.4932C20.5786 16.4932 19.9922 16.6101 19.4452 16.8372C18.8982 17.0643 18.4015 17.3972 17.9834 17.8167C16.2167 19.5834 16.1084 22.5667 18.3334 24.8334L25.0001 31.5L31.6667 24.8334C33.8917 22.5667 33.7834 19.5834 32.0167 17.8167Z" stroke="#E52A27" stroke-width="2" stroke-linecap="round" stroke-linejoin="round"/>
</svg>
