<svg width="54" height="51" viewBox="0 0 54 51" fill="none" xmlns="http://www.w3.org/2000/svg">
<path d="M35.4002 15.6C35.0337 15.9738 34.8285 16.4765 34.8285 17C34.8285 17.5235 35.0337 18.0261 35.4002 18.4L38.6002 21.6C38.9741 21.9664 39.4767 22.1717 40.0002 22.1717C40.5237 22.1717 41.0263 21.9664 41.4002 21.6L48.9402 14.06C49.9459 16.2823 50.2504 18.7584 49.8131 21.1583C49.3759 23.5581 48.2176 25.7676 46.4928 27.4925C44.7679 29.2174 42.5583 30.3756 40.1585 30.8129C37.7587 31.2501 35.2826 30.9456 33.0602 29.94L19.2402 43.76C18.4445 44.5556 17.3654 45.0026 16.2402 45.0026C15.115 45.0026 14.0358 44.5556 13.2402 43.76C12.4445 42.9643 11.9976 41.8852 11.9976 40.76C11.9976 39.6347 12.4445 38.5556 13.2402 37.76L27.0602 23.94C26.0545 21.7176 25.75 19.2415 26.1873 16.8417C26.6245 14.4418 27.7828 12.2323 29.5076 10.5074C31.2325 8.78253 33.4421 7.6243 35.8419 7.18704C38.2417 6.74979 40.7178 7.05429 42.9402 8.05996L35.4202 15.58L35.4002 15.6Z" stroke="black" stroke-width="2" stroke-linecap="round" stroke-linejoin="round"/>
<path d="M12 20C14.1217 20 16.1566 19.1571 17.6569 17.6569C19.1571 16.1566 20 14.1217 20 12C20 9.87827 19.1571 7.84344 17.6569 6.34315C16.1566 4.84285 14.1217 4 12 4C9.87827 4 7.84344 4.84285 6.34315 6.34315C4.84285 7.84344 4 9.87827 4 12C4 14.1217 4.84285 16.1566 6.34315 17.6569C7.84344 19.1571 9.87827 20 12 20V20Z" stroke="#E52A27" stroke-width="2" stroke-linecap="round" stroke-linejoin="round"/>
<path d="M11 13.73L7 20.66M12 14C12.5304 14 13.0391 13.7893 13.4142 13.4142C13.7893 13.0391 14 12.5304 14 12C14 11.4696 13.7893 10.9609 13.4142 10.5858C13.0391 10.2107 12.5304 10 12 10C11.4696 10 10.9609 10.2107 10.5858 10.5858C10.2107 10.9609 10 11.4696 10 12C10 12.5304 10.2107 13.0391 10.5858 13.4142C10.9609 13.7893 11.4696 14 12 14ZM12 2V4V2ZM12 22V20V22ZM17 20.66L16 18.93L17 20.66ZM11 10.27L7 3.34L11 10.27ZM20.66 17L18.93 16L20.66 17ZM3.34 7L5.07 8L3.34 7ZM14 12H22H14ZM2 12H4H2ZM20.66 7L18.93 8L20.66 7ZM3.34 17L5.07 16L3.34 17ZM17 3.34L16 5.07L17 3.34Z" stroke="#E52A27" stroke-width="2" stroke-linecap="round" stroke-linejoin="round"/>
</svg>
