<svg width="48" height="48" viewBox="0 0 48 48" fill="none" xmlns="http://www.w3.org/2000/svg">
<path d="M42.4198 31.7802C41.1475 34.7891 39.1574 37.4406 36.6236 39.5028C34.0898 41.5649 31.0894 42.975 27.8847 43.6097C24.68 44.2444 21.3687 44.0844 18.2401 43.1437C15.1116 42.2031 12.2611 40.5103 9.93787 38.2135C7.61466 35.9166 5.88946 33.0857 4.9131 29.9681C3.93674 26.8504 3.73895 23.5411 4.33703 20.3294C4.9351 17.1177 6.31082 14.1014 8.34392 11.5442C10.377 8.98702 13.0056 6.96679 15.9998 5.66016" stroke="black" stroke-width="2" stroke-linecap="round" stroke-linejoin="round"/>
<path d="M44 24C44 21.3736 43.4827 18.7728 42.4776 16.3463C41.4725 13.9198 39.9993 11.715 38.1421 9.85786C36.285 8.00069 34.0802 6.5275 31.6537 5.52241C29.2272 4.51732 26.6264 4 24 4V24H44Z" stroke="#E52A27" stroke-width="2" stroke-linecap="round" stroke-linejoin="round"/>
</svg>
